HIERARCHY
ROOT Hips
{
	OFFSET -285.066589 92.472481 297.089996
	CHANNELS 6 Xposition Yposition Zposition Xrotation Yrotation Zrotation 
	JOINT RightUpLeg
	{
		OFFSET 0.103457 1.857824 10.548504
		CHANNELS 3 Xrotation Yrotation Zrotation
		JOINT RightLeg
		{
			OFFSET 43.500000 -0.000038 -0.000017
			CHANNELS 3 Xrotation Yrotation Zrotation
			JOINT RightFoot
			{
				OFFSET 42.372200 0.000011 0.000019
				CHANNELS 3 Xrotation Yrotation Zrotation
				JOINT RightToe
				{
					OFFSET 17.300011 0.000002 -0.000008
					CHANNELS 3 Xrotation Yrotation Zrotation
					End Site
					{
						OFFSET 0.000000 0.000000 0.000000
					}
				}
			}
		}
	}
	JOINT LeftUpLeg
	{
		OFFSET 0.103457 1.857822 -10.548492
		CHANNELS 3 Xrotation Yrotation Zrotation
		JOINT LeftLeg
		{
			OFFSET 43.500038 -0.000027 0.000036
			CHANNELS 3 Xrotation Yrotation Zrotation
			JOINT LeftFoot
			{
				OFFSET 42.372261 0.000015 0.000010
				CHANNELS 3 Xrotation Yrotation Zrotation
				JOINT LeftToe
				{
					OFFSET 17.299988 -0.000006 0.000008
					CHANNELS 3 Xrotation Yrotation Zrotation
					End Site
					{
						OFFSET 0.000000 0.000000 0.000000
					}
				}
			}
		}
	}
	JOINT Spine
	{
		OFFSET 6.901965 -2.603737 0.000006
		CHANNELS 3 Xrotation Yrotation Zrotation
		JOINT Spine1
		{
			OFFSET 12.588104 -0.000005 0.000007
			CHANNELS 3 Xrotation Yrotation Zrotation
			JOINT Spine2
			{
				OFFSET 12.343202 0.000026 -0.000008
				CHANNELS 3 Xrotation Yrotation Zrotation
				JOINT Neck
				{
					OFFSET 25.832890 -0.000029 -0.000007
					CHANNELS 3 Xrotation Yrotation Zrotation
					JOINT Head
					{
						OFFSET 11.766619 0.000021 0.000012
						CHANNELS 3 Xrotation Yrotation Zrotation
						End Site
						{
							OFFSET 0.000000 0.000000 0.000000
						}
					}
				}
				JOINT RightShoulder
				{
					OFFSET 19.745909 -1.480377 6.000106
					CHANNELS 3 Xrotation Yrotation Zrotation
					JOINT RightArm
					{
						OFFSET 11.284110 -0.000009 -0.000020
						CHANNELS 3 Xrotation Yrotation Zrotation
						JOINT RightForeArm
						{
							OFFSET 33.000053 0.000014 0.000021
							CHANNELS 3 Xrotation Yrotation Zrotation
							JOINT RightHand
							{
								OFFSET 25.200008 0.000006 -0.000004
								CHANNELS 3 Xrotation Yrotation Zrotation
								End Site
								{
									OFFSET 0.000000 0.000000 0.000000
								}
							}
						}
					}
				}
				JOINT LeftShoulder
				{
					OFFSET 19.746101 -1.480381 -6.000081
					CHANNELS 3 Xrotation Yrotation Zrotation
					JOINT LeftArm
					{
						OFFSET 11.284131 -0.000022 0.000003
						CHANNELS 3 Xrotation Yrotation Zrotation
						JOINT LeftForeArm
						{
							OFFSET 33.000095 0.000014 0.000005
							CHANNELS 3 Xrotation Yrotation Zrotation
							JOINT LeftHand
							{
								OFFSET 25.199774 0.000153 0.000423
								CHANNELS 3 Xrotation Yrotation Zrotation
								End Site
								{
									OFFSET 0.000000 0.000000 0.000000
								}
							}
						}
					}
				}
			}
		}
	}
}
MOTION
Frames: 5
Frame Time: 0.033333
270.749207 81.197006 576.413879 89.232726 9.425387 76.229979 169.463837 -20.809090 170.714308 -62.673686 1.922989 8.768913 87.929308 -7.512780 -7.315311 21.454557 0.003121 0.000018 148.612991 20.422305 -166.083822 -51.434849 3.833449 8.227984 76.051609 -5.554079 1.012236 21.454548 -0.003085 0.000001 10.438923 -0.703407 -1.875428 10.886071 -1.227079 -3.808880 10.568678 -1.250169 -3.801425 26.768879 -7.190407 -21.078896 -25.276333 28.466041 -34.828385 149.329956 -80.261867 29.577981 -20.882776 40.295917 1.826961 -79.869288 -14.358280 2.905366 -3.687938 -12.705543 20.859591 -128.798954 78.776806 53.576055 15.055257 -54.301834 -46.008250 -29.561195 17.087325 -1.354844 8.056034 6.289148 5.922038 
267.748993 81.467941 578.789978 89.328615 8.933250 73.406010 171.836836 -22.358595 170.776272 -61.806498 1.270236 9.359546 83.258107 -8.553447 -8.520917 21.454558 0.003106 0.000011 149.774519 18.652591 -164.843829 -52.397209 3.265094 6.323563 81.427418 -4.276752 0.651050 21.454551 -0.003091 0.000001 10.126086 -0.616472 -1.619269 10.255418 -1.086899 -3.286908 9.937820 -1.106867 -3.280304 26.423693 -8.107491 -21.497479 -25.134430 28.867180 -35.337193 159.192981 -79.789587 19.616947 -16.378312 40.457184 5.684064 -79.099376 -14.454352 2.878292 -3.209263 -13.111497 18.434406 -128.795976 78.606981 53.589005 14.139838 -53.156197 -45.407975 -27.827517 16.455003 -1.282298 8.747641 6.457527 6.071670 
264.886108 81.677361 581.003723 88.874292 8.354243 69.507024 173.414309 -24.327486 170.036767 -62.752349 1.456479 9.907777 77.968563 -9.985523 -10.489936 21.454562 0.003118 0.000021 150.272413 16.132108 -164.294600 -53.622671 2.666030 4.567773 84.908158 -3.297483 -0.675200 21.454551 -0.003093 -0.000001 9.928616 -0.483930 -1.227384 9.854056 -0.861494 -2.491534 9.536244 -0.876655 -2.486301 25.735501 -7.783724 -21.566029 -25.126246 28.092095 -35.111882 167.465939 -79.217811 11.245978 -11.739181 40.493026 8.822537 -78.160969 -14.407290 2.833814 -2.818251 -13.919969 16.779661 -132.928950 78.421903 49.406016 11.538185 -51.711140 -43.982016 -26.440209 16.018182 -1.230368 9.320404 6.147648 6.518502 
261.952698 82.033958 583.125183 88.578613 8.010121 65.828981 174.104705 -25.219801 170.562159 -64.820093 1.737594 9.161545 72.205536 -10.434004 -11.447664 21.454557 0.003106 0.000018 151.290944 14.077891 -163.714908 -54.499988 2.411770 2.977162 87.635063 -2.484412 -2.450133 21.454555 -0.003096 -0.000001 9.856887 -0.353449 -1.033068 9.706728 -0.618937 -2.092139 9.388847 -0.631689 -2.088370 24.816080 -7.553618 -21.397591 -25.501519 27.034218 -34.628858 174.603035 -78.168701 4.021961 -7.466838 40.699410 11.567983 -76.476248 -14.988898 2.801540 -3.087181 -15.796341 14.461700 -136.615955 78.710431 45.647957 7.297234 -50.910775 -41.365289 -25.371460 16.042414 -1.214346 9.648889 5.091772 6.021291 
259.079315 82.417480 585.164612 88.522592 7.817614 62.174003 174.121179 -24.430796 172.573076 -67.763932 1.874704 6.883837 68.288204 -9.092776 -10.978977 21.454565 0.003117 0.000012 152.610318 12.390393 -163.938802 -54.942786 2.687092 1.647059 90.116409 -1.799313 -4.177295 21.454553 -0.003097 -0.000001 9.843141 -0.249628 -0.887269 9.676829 -0.424137 -1.792300 9.358899 -0.435077 -1.789716 23.822921 -7.909225 -21.172950 -25.789254 26.671660 -34.332079 -179.682975 -76.904775 -1.774062 -5.017496 41.398443 14.563963 -72.964404 -16.736919 2.773761 -2.528637 -18.501896 10.519664 -136.595929 79.331315 45.636995 2.231167 -50.861437 -37.216574 -25.236559 16.153988 -1.219275 9.557339 4.383652 4.509886 
